# xmcd
#
# Track frame offsets:
#	151
#	18738
#	27326
#	45086
#	55133
#	81247
#	151464
#	162929
#	175276
#	193008
#	206872
#	222342
#	250883
#
# Disc length: 3545 seconds
#
# Revision: 0
# Processed by: cddbd v1.4PL0 Copyright (c) Steve Scherf et al.
# Submitted via: EasyCDDAExtractor 4.5.0.1
#
DISCID=b20dd70d
DTITLE=Tribute to Banjo Paterson [CD 2) - Wallis and Matilda
DYEAR=2002
DGENRE=Country
TTITLE0=Track Of The Overflow
TTITLE1=The Reverend Mullineux
TTITLE2=The Man From Ironbark
TTITLE3=Been There Before
TTITLE4=The Old Australian Ways
TTITLE5=Father Riley's House
TTITLE6=Those Names
TTITLE7=Waltzing Matilda
TTITLE8=Mulga Bill's Bicycle
TTITLE9=Bottle-O
TTITLE10=As Long As Your Eyes Are Blue
TTITLE11=The Geebung Polo Club
TTITLE12=Sunrise On the Coast
EXTD=
EXTT0=
EXTT1=
EXTT2=
EXTT3=
EXTT4=
EXTT5=
EXTT6=
EXTT7=
EXTT8=
EXTT9=
EXTT10=
EXTT11=
EXTT12=
PLAYORDER=
